<?xml version="1.0" standalone="no"?>
<!DOCTYPE svg PUBLIC "-//W3C//DTD SVG 20010904//EN"
 "http://www.w3.org/TR/2001/REC-SVG-20010904/DTD/svg10.dtd">
<svg version="1.0" xmlns="http://www.w3.org/2000/svg"
 width="1563.000000pt" height="1563.000000pt" viewBox="0 0 1563.000000 1563.000000"
 preserveAspectRatio="xMidYMid meet">

<g transform="translate(0.000000,1563.000000) scale(0.100000,-0.100000)"
fill="#000000" stroke="none">
<path d="M5850 8447 c0 -13 -253 -664 -261 -672 -5 -5 -29 -15 -52 -20 -30 -8
-43 -17 -45 -31 -3 -19 3 -19 140 -19 134 0 143 2 143 20 0 14 -11 22 -45 30
-29 7 -46 17 -48 29 -2 9 9 53 24 97 l29 79 106 0 106 0 33 -84 c18 -46 30
-90 28 -97 -3 -8 -24 -18 -49 -24 -32 -8 -44 -16 -44 -30 0 -17 12 -18 188
-20 173 -1 187 0 187 17 0 20 -28 38 -59 38 -28 0 -42 25 -107 186 -91 227
-196 478 -207 492 -8 10 -67 18 -67 9z m33 -323 c21 -53 36 -99 34 -101 -3 -2
-38 -3 -80 -1 l-75 3 36 98 c20 53 39 97 42 97 3 0 22 -43 43 -96z"/>
<path d="M12269 8445 c-3 -3 -41 -15 -85 -27 -85 -25 -102 -46 -48 -60 20 -5
34 -16 38 -30 8 -30 8 -507 0 -547 -4 -21 -12 -31 -24 -31 -31 0 -50 -11 -50
-30 0 -17 11 -19 135 -18 122 0 135 2 135 18 0 11 -12 20 -32 26 l-33 10 -3
77 c-4 113 10 113 109 6 l78 -84 -30 -9 c-18 -6 -29 -16 -29 -27 0 -18 10 -19
140 -19 116 0 140 2 140 15 0 8 -10 19 -22 26 -13 6 -76 63 -140 127 l-118
116 80 52 c44 29 103 60 130 69 29 10 50 23 50 31 0 11 -24 14 -125 14 -119 0
-125 -1 -125 -20 0 -15 9 -22 30 -26 17 -4 30 -9 30 -13 -1 -7 -68 -57 -142
-105 l-56 -35 1 247 c2 215 0 247 -13 250 -9 1 -18 0 -21 -3z"/>
<path d="M4788 8430 c-64 -3 -118 -7 -121 -10 -10 -11 -47 -92 -90 -195 -25
-60 -64 -150 -87 -199 -41 -86 -43 -89 -55 -65 -7 13 -54 116 -105 229 -51
113 -99 213 -108 223 -13 14 -34 17 -139 17 l-123 0 0 -25 c0 -18 5 -25 19
-25 10 0 32 -5 50 -11 l31 -11 -1 -136 c0 -76 -4 -204 -8 -285 -8 -162 -11
-169 -71 -184 -23 -6 -36 -16 -38 -29 -3 -19 3 -20 138 -21 138 -1 140 -1 140
21 0 18 -9 24 -45 34 -66 17 -68 28 -58 282 l8 214 102 -219 c56 -121 111
-246 123 -278 19 -52 25 -58 47 -55 22 3 30 15 58 93 18 50 71 175 117 279 98
222 92 227 101 -86 6 -214 3 -228 -47 -228 -28 0 -60 -23 -55 -39 3 -8 58 -12
192 -14 173 -3 187 -2 187 14 0 13 -15 23 -54 35 l-54 17 -6 101 c-3 56 -9
182 -14 281 -10 204 -8 211 60 221 31 5 38 11 38 30 0 12 -3 24 -7 26 -5 2
-61 1 -125 -2z"/>
<path d="M10270 8430 c-125 -5 -127 -6 -121 -40 0 -5 16 -10 34 -10 64 0 62 9
65 -306 2 -199 0 -290 -8 -298 -6 -6 -30 -16 -53 -21 -32 -8 -43 -16 -45 -33
l-3 -23 243 5 c288 7 325 15 390 83 97 102 65 254 -66 308 l-39 17 39 21 c105
60 112 185 14 256 -70 51 -124 56 -450 41z m285 -64 c40 -17 75 -68 75 -109 0
-39 -25 -93 -49 -106 -31 -17 -120 -32 -147 -25 -24 6 -24 8 -24 130 l0 124
55 0 c31 0 71 -6 90 -14z m43 -323 c86 -63 81 -218 -8 -265 -34 -18 -130 -25
-164 -12 -14 5 -16 29 -16 156 l0 151 80 -5 c60 -4 88 -10 108 -25z"/>
<path d="M2270 8375 c-18 -22 -5 -45 65 -115 l65 -64 -70 -72 c-72 -74 -81
-93 -55 -114 22 -18 45 -5 115 65 l64 65 72 -70 c74 -72 93 -81 114 -55 18 22
5 45 -65 115 l-65 64 70 72 c72 74 81 93 55 114 -22 18 -45 5 -115 -65 l-64
-65 -72 70 c-74 72 -93 81 -114 55z"/>
<path d="M3246 8375 c-3 -9 -6 -46 -6 -81 l0 -64 -67 0 c-76 0 -97 -9 -91 -36
3 -16 14 -19 81 -22 l77 -3 0 -68 c0 -78 17 -113 47 -95 14 9 19 27 21 88 l3
76 72 0 c80 0 102 11 86 42 -8 15 -22 18 -84 18 l-74 0 -3 78 c-3 75 -4 77
-29 80 -17 2 -29 -3 -33 -13z"/>
<path d="M9080 8226 c-18 -25 -53 -55 -81 -71 -61 -33 -68 -65 -14 -65 l35 0
0 -156 c0 -161 5 -185 44 -216 43 -35 171 -14 196 32 14 26 -12 45 -39 31 -34
-19 -61 -13 -71 15 -6 14 -10 86 -10 160 l0 134 60 0 60 0 0 30 c0 30 -1 30
-55 30 l-55 0 0 60 c0 53 -2 60 -19 60 -12 0 -33 -18 -51 -44z"/>
<path d="M8155 8200 c-11 -4 -33 -22 -49 -39 -16 -17 -44 -35 -63 -42 -42 -13
-44 -41 -3 -56 l30 -11 0 -145 0 -144 -41 -16 c-76 -30 -46 -41 119 -43 140
-2 152 0 152 16 0 19 -19 30 -54 30 -41 0 -46 17 -46 155 0 101 3 135 15 152
l16 22 40 -21 40 -21 27 20 c57 42 30 123 -40 123 -35 -1 -62 -19 -91 -60 -17
-24 -17 -24 -17 33 0 59 -2 61 -35 47z"/>
<path d="M6538 8180 c-133 -23 -231 -130 -231 -255 0 -122 88 -217 213 -232
103 -12 191 22 240 93 21 32 22 36 7 51 -15 15 -19 13 -55 -19 -115 -104 -273
-12 -272 156 1 130 129 217 187 126 37 -59 51 -70 88 -70 24 0 37 6 45 19 32
60 -14 116 -106 131 -32 6 -61 9 -64 9 -3 -1 -26 -5 -52 -9z"/>
<path d="M7078 8180 c-133 -23 -231 -130 -231 -255 0 -122 88 -217 213 -232
103 -12 191 22 240 93 21 32 22 36 7 51 -15 15 -19 13 -55 -19 -115 -104 -273
-12 -272 156 1 130 129 217 187 126 37 -59 51 -70 88 -70 24 0 37 6 45 19 32
60 -14 116 -106 131 -32 6 -61 9 -64 9 -3 -1 -26 -5 -52 -9z"/>
<path d="M8588 8167 c-46 -15 -121 -67 -142 -99 -8 -13 -18 -35 -21 -50 -10
-40 15 -45 72 -17 38 19 49 31 56 59 12 47 33 68 75 76 53 10 74 -20 70 -100
l-3 -60 -79 -32 c-140 -56 -186 -96 -186 -162 0 -65 69 -99 162 -82 57 11 76
20 102 49 l19 21 33 -35 c25 -27 39 -35 67 -35 41 0 82 30 91 66 10 37 -8 53
-33 30 -35 -32 -41 -12 -41 140 0 170 -10 207 -64 229 -42 18 -126 18 -178 2z
m112 -299 c0 -74 -24 -108 -75 -108 -85 0 -70 101 23 150 21 10 40 19 45 20 4
0 7 -28 7 -62z"/>
<path d="M9465 8164 c-121 -63 -172 -183 -134 -317 13 -49 73 -115 124 -138
87 -40 215 -17 300 54 27 23 29 27 14 42 -14 14 -19 14 -60 -4 -122 -56 -232
3 -254 137 l-7 42 166 0 166 0 0 25 c0 59 -56 132 -122 160 -49 20 -154 20
-193 -1z m136 -34 c21 -12 49 -60 49 -85 0 -12 -16 -15 -95 -15 -84 0 -95 2
-95 18 0 20 25 60 48 80 19 15 66 16 93 2z"/>
<path d="M11074 8166 c-49 -22 -106 -77 -127 -126 -28 -62 -27 -154 3 -214 90
-188 396 -180 477 12 19 46 18 150 -2 198 -21 51 -70 102 -120 125 -48 22
-184 25 -231 5z m165 -41 c42 -21 61 -79 61 -183 0 -48 -4 -102 -10 -121 -21
-74 -87 -107 -153 -76 -49 23 -60 54 -64 185 -3 96 -1 121 14 150 29 57 93 76
152 45z"/>
<path d="M11670 8164 c-45 -20 -96 -69 -123 -119 -32 -59 -30 -164 3 -225 30
-53 96 -105 153 -121 69 -19 170 -6 224 27 165 102 144 366 -33 440 -45 19
-179 17 -224 -2z m179 -50 c38 -32 51 -77 51 -179 -1 -162 -62 -234 -164 -191
-54 22 -69 65 -68 198 1 114 12 153 54 182 35 25 91 20 127 -10z"/>
<path d="M12830 8161 c-50 -26 -80 -74 -80 -128 0 -87 43 -128 165 -159 106
-27 137 -72 83 -121 -25 -22 -85 -22 -125 2 -16 9 -45 39 -63 66 -44 65 -66
62 -63 -6 4 -87 8 -93 65 -110 170 -50 312 15 310 143 -1 78 -45 118 -174 153
-40 11 -81 28 -90 36 -41 37 -5 97 57 97 48 0 78 -19 110 -70 21 -33 34 -44
49 -42 17 2 21 9 19 38 -6 89 -10 97 -58 109 -69 17 -165 14 -205 -8z"/>
<path d="M4960 8146 c0 -8 12 -21 27 -28 23 -11 45 -52 125 -227 54 -118 98
-223 98 -233 0 -29 -59 -138 -74 -138 -7 0 -19 6 -25 14 -17 20 -58 28 -80 17
-28 -15 -45 -65 -32 -90 15 -27 71 -42 116 -30 61 17 86 64 255 484 73 180 78
190 108 199 20 5 32 15 32 26 0 15 -12 17 -105 17 -96 0 -105 -2 -105 -19 0
-13 10 -20 30 -24 59 -12 58 -23 -40 -269 -7 -16 -20 5 -69 108 -34 70 -61
134 -61 141 0 8 11 17 25 20 16 4 25 13 25 26 0 19 -7 20 -125 20 -102 0 -125
-3 -125 -14z"/>
<path d="M7360 8141 c0 -20 18 -31 50 -31 17 0 19 -13 22 -167 3 -187 10 -207
73 -237 65 -31 138 -19 205 34 21 17 41 30 44 30 3 0 6 -18 6 -40 0 -47 2 -47
88 -20 35 11 75 20 88 20 17 0 24 6 24 20 0 16 -7 20 -35 20 l-35 0 0 195 0
195 -105 0 c-96 0 -105 -2 -105 -19 0 -21 19 -31 56 -31 l24 0 0 -138 c0 -153
-5 -168 -64 -196 -51 -24 -91 -21 -115 10 -19 25 -21 40 -21 200 l0 174 -100
0 c-91 0 -100 -2 -100 -19z"/>
<path d="M2424 7516 c-11 -28 4 -48 33 -44 22 2 28 8 28 28 0 20 -6 26 -28 28
-18 2 -29 -2 -33 -12z"/>
<path d="M2264 7385 c-4 -8 -4 -22 0 -30 5 -13 33 -15 193 -13 l188 3 0 25 0
25 -188 3 c-160 2 -188 0 -193 -13z"/>
<path d="M3084 7385 c-4 -8 -4 -22 0 -30 5 -13 33 -15 193 -13 l188 3 3 28 3
27 -191 0 c-160 0 -192 -2 -196 -15z"/>
<path d="M2424 7256 c-11 -28 4 -48 33 -44 22 2 28 8 28 28 0 20 -6 26 -28 28
-18 2 -29 -2 -33 -12z"/>
</g>
</svg>
